<?xml version="1.0" encoding="UTF-8" ?>
<!DOCTYPE svg PUBLIC "-//W3C//DTD SVG 1.1//EN" "http://www.w3.org/Graphics/SVG/1.1/DTD/svg11.dtd">
<svg width="2270pt" height="504pt" viewBox="0 0 2270 504" version="1.1" xmlns="http://www.w3.org/2000/svg">
<g id="#183647ff">
<path fill="#183647" opacity="1.00" d=" M 1249.24 143.28 C 1250.99 142.15 1253.20 144.01 1252.74 145.94 C 1252.76 210.01 1252.77 274.08 1252.74 338.14 C 1253.26 340.64 1249.42 341.95 1248.38 339.66 C 1247.83 337.13 1248.19 334.51 1248.12 331.95 C 1248.11 270.30 1248.14 208.66 1248.11 147.01 C 1248.22 145.75 1247.80 143.97 1249.24 143.28 Z" />
<path fill="#183647" opacity="1.00" d=" M 657.64 192.24 C 668.05 192.25 678.46 192.24 688.87 192.25 C 688.89 211.96 688.87 231.68 688.88 251.39 C 694.44 245.40 701.72 240.65 709.88 239.26 C 721.67 237.20 734.45 239.64 743.97 247.12 C 756.70 256.84 762.88 273.28 762.62 288.99 C 762.44 304.09 756.60 319.79 744.49 329.34 C 731.14 340.26 710.97 341.51 696.18 332.80 C 692.18 330.49 688.96 327.10 686.36 323.33 C 686.39 327.51 686.38 331.69 686.37 335.87 C 676.79 335.88 667.21 335.88 657.63 335.87 C 657.62 288.00 657.60 240.12 657.64 192.24 M 705.47 264.60 C 696.91 266.37 690.32 273.77 688.29 282.09 C 685.45 292.58 690.27 304.84 699.93 310.06 C 708.43 314.70 720.07 312.89 726.42 305.45 C 734.25 296.28 734.63 281.43 727.10 271.96 C 722.04 265.63 713.32 262.85 705.47 264.60 Z" />
<path fill="#183647" opacity="1.00" d=" M 781.23 194.32 C 788.24 192.94 796.10 195.90 799.95 202.03 C 803.79 207.74 803.48 215.83 799.26 221.26 C 793.08 229.77 779.14 230.73 771.85 223.16 C 767.03 218.61 765.54 211.13 767.98 205.01 C 770.08 199.41 775.50 195.54 781.23 194.32 Z" />
<path fill="#183647" opacity="1.00" d=" M 1709.75 208.45 C 1718.67 211.12 1727.59 213.77 1736.50 216.44 C 1736.51 236.65 1736.49 256.85 1736.51 277.06 C 1748.46 264.85 1760.14 252.39 1772.13 240.22 C 1782.53 240.28 1792.93 240.23 1803.34 240.25 C 1791.69 252.63 1780.02 264.99 1768.33 277.33 C 1780.13 296.56 1792.12 315.67 1803.96 334.87 C 1793.15 334.85 1782.35 334.94 1771.54 334.82 C 1764.27 322.03 1756.86 309.32 1749.53 296.57 C 1745.37 300.67 1741.24 304.82 1737.12 308.96 C 1737.15 317.45 1737.08 325.94 1737.16 334.43 C 1728.02 334.59 1718.88 334.47 1709.75 334.49 C 1709.75 292.48 1709.73 250.47 1709.75 208.45 Z" />
<path fill="#183647" opacity="1.00" d=" M 590.49 238.69 C 605.92 236.76 622.51 240.37 634.51 250.62 C 655.72 268.21 656.62 304.00 637.36 323.35 C 617.56 343.54 581.74 344.11 561.15 324.81 C 542.33 307.31 540.83 274.85 557.60 255.48 C 565.83 245.84 578.05 240.25 590.49 238.69 M 593.37 264.64 C 587.67 265.89 582.60 269.67 579.76 274.76 C 574.18 284.68 575.41 298.32 583.49 306.54 C 591.16 314.35 605.06 314.67 613.08 307.21 C 623.45 297.70 623.67 279.28 613.25 269.73 C 608.00 264.80 600.31 263.11 593.37 264.64 Z" />
<path fill="#183647" opacity="1.00" d=" M 833.10 244.20 C 852.44 234.72 877.74 236.23 894.47 250.36 C 894.47 250.76 894.47 251.56 894.46 251.97 C 908.24 240.26 927.38 236.46 945.00 238.90 C 954.01 240.02 963.19 243.81 968.70 251.32 C 976.07 261.21 977.38 274.03 977.71 285.97 C 977.81 302.60 977.73 319.24 977.75 335.87 C 968.21 335.89 958.66 335.87 949.12 335.88 C 949.13 332.40 949.12 328.92 949.10 325.44 C 943.54 334.11 932.92 337.86 923.02 338.12 C 912.58 338.27 901.42 335.35 894.10 327.49 C 883.17 336.84 868.03 339.80 853.99 338.64 C 839.44 337.55 824.80 330.97 816.12 318.92 C 806.98 306.81 804.87 290.57 808.01 276.00 C 811.05 262.34 820.50 250.31 833.10 244.20 M 876.80 271.91 C 870.14 264.01 857.38 261.71 848.81 267.82 C 836.25 276.35 834.91 296.78 846.00 307.04 C 854.62 315.16 869.63 314.08 877.59 305.56 C 881.51 310.41 885.50 315.20 889.42 320.05 C 887.13 313.56 886.78 306.32 888.69 299.70 C 890.98 292.15 897.58 286.86 904.43 283.54 C 918.11 277.21 933.51 276.89 948.31 276.46 C 948.14 273.24 947.92 269.78 945.81 267.17 C 942.49 263.13 937.01 261.64 931.98 261.49 C 922.99 261.17 914.50 265.43 907.82 271.15 C 902.51 265.57 897.32 259.88 892.03 254.29 C 886.93 260.15 881.89 266.05 876.80 271.91 M 922.34 298.35 C 917.88 300.35 914.99 305.53 916.68 310.33 C 918.13 314.58 922.76 316.62 926.95 316.97 C 933.58 317.71 941.23 316.10 945.37 310.43 C 948.87 305.97 949.33 300.07 949.13 294.62 C 940.15 294.85 930.64 294.34 922.34 298.35 Z" />
<path fill="#183647" opacity="1.00" d=" M 1048.99 259.83 C 1057.82 246.26 1073.89 238.47 1089.89 238.25 C 1103.10 237.64 1116.96 242.02 1126.08 251.90 C 1137.44 263.84 1140.39 281.21 1139.20 297.12 C 1116.33 297.15 1093.46 297.10 1070.59 297.14 C 1071.36 303.75 1076.05 309.32 1081.93 312.16 C 1092.59 317.62 1106.90 314.74 1114.09 304.99 C 1121.33 309.48 1128.46 314.16 1135.76 318.57 C 1129.02 329.10 1117.27 335.68 1105.13 337.82 C 1090.18 340.47 1073.90 338.39 1061.11 329.83 C 1050.77 323.03 1043.72 311.72 1041.64 299.58 C 1039.76 288.43 1040.70 276.65 1045.40 266.29 C 1039.62 265.65 1033.36 265.96 1028.40 269.32 C 1022.02 273.15 1018.49 280.62 1018.50 287.93 C 1018.50 303.91 1018.51 319.89 1018.49 335.88 C 1008.08 335.87 997.66 335.89 987.25 335.87 C 987.25 304.37 987.24 272.87 987.25 241.38 C 997.29 241.38 1007.34 241.36 1017.38 241.39 C 1017.37 246.02 1017.40 250.65 1017.34 255.27 C 1020.18 250.03 1024.11 245.27 1029.31 242.24 C 1035.44 238.47 1043.01 237.97 1049.97 239.18 C 1049.71 246.06 1049.34 252.94 1048.99 259.83 M 1077.61 264.68 C 1073.64 267.83 1071.15 272.56 1070.56 277.58 C 1083.92 277.66 1097.28 277.62 1110.65 277.60 C 1110.52 270.96 1107.05 263.96 1100.69 261.33 C 1093.14 258.39 1083.94 259.52 1077.61 264.68 Z" />
<path fill="#183647" opacity="1.00" d=" M 419.21 254.59 C 423.76 246.56 431.85 240.84 440.93 239.21 C 449.99 237.70 460.04 238.75 467.62 244.31 C 471.35 246.90 474.10 250.61 476.32 254.51 C 481.42 246.70 489.56 240.62 498.90 239.19 C 507.83 237.84 517.65 238.45 525.33 243.63 C 532.80 248.42 537.49 256.60 539.40 265.11 C 541.39 272.91 540.79 281.01 540.88 288.97 C 540.87 304.60 540.88 320.24 540.88 335.88 C 530.46 335.88 520.04 335.88 509.63 335.88 C 509.59 318.21 509.66 300.55 509.60 282.89 C 509.40 277.44 508.89 271.23 504.64 267.28 C 498.13 261.45 486.85 264.62 483.31 272.36 C 481.08 276.52 480.48 281.32 480.49 285.98 C 480.51 302.61 480.51 319.24 480.49 335.88 C 470.08 335.87 459.66 335.89 449.25 335.87 C 449.26 318.23 449.23 300.59 449.26 282.95 C 449.36 277.33 448.59 270.89 444.15 266.92 C 438.41 262.53 428.92 263.72 424.77 269.79 C 421.54 274.12 420.35 279.62 420.38 284.95 C 420.37 301.92 420.39 318.90 420.38 335.87 C 409.92 335.88 399.46 335.87 389.01 335.88 C 389.00 304.33 388.99 272.79 389.01 241.24 C 399.09 241.25 409.17 241.24 419.24 241.25 C 419.26 245.70 419.28 250.14 419.21 254.59 Z" />
<path fill="#183647" opacity="1.00" d=" M 1613.17 251.01 C 1626.95 242.19 1643.77 239.03 1659.95 239.73 C 1668.44 240.24 1677.15 242.64 1683.76 248.22 C 1691.18 254.46 1695.56 264.22 1695.28 273.92 C 1695.22 294.24 1695.28 314.56 1695.25 334.87 C 1686.35 334.88 1677.46 334.88 1668.57 334.87 C 1668.80 331.48 1668.89 328.09 1668.88 324.69 C 1656.75 336.81 1636.39 340.02 1621.32 331.72 C 1613.46 327.38 1608.31 318.87 1607.82 309.95 C 1607.15 302.29 1608.79 293.98 1614.28 288.29 C 1620.37 281.90 1629.33 279.44 1637.83 278.32 C 1648.04 276.98 1658.35 277.72 1668.60 278.03 C 1668.16 273.49 1666.99 268.66 1663.54 265.45 C 1659.72 261.75 1654.11 260.85 1649.01 261.12 C 1639.37 261.63 1630.21 265.15 1621.52 269.12 C 1618.74 263.08 1615.94 257.05 1613.17 251.01 M 1639.40 294.57 C 1630.57 296.25 1629.44 309.07 1636.09 313.92 C 1640.38 316.96 1646.01 317.01 1651.05 316.50 C 1657.60 315.79 1664.00 312.03 1666.88 305.95 C 1668.94 302.26 1668.31 297.92 1668.36 293.89 C 1658.72 294.25 1648.94 293.07 1639.40 294.57 Z" />
<path fill="#183647" opacity="1.00" d=" M 1838.74 257.72 C 1845.08 246.88 1857.05 239.15 1869.88 239.97 C 1869.90 248.27 1869.81 256.58 1869.93 264.88 C 1863.16 264.76 1856.18 265.85 1850.28 269.31 C 1844.55 272.63 1840.14 278.37 1838.82 284.88 C 1838.64 301.42 1838.82 317.96 1838.74 334.51 C 1829.82 334.49 1820.91 334.51 1812.00 334.50 C 1811.99 303.33 1812.00 272.17 1812.00 241.00 C 1820.92 241.00 1829.83 240.99 1838.76 241.01 C 1838.74 246.58 1838.76 252.15 1838.74 257.72 Z" />
<path fill="#183647" opacity="1.00" d=" M 1909.47 240.59 C 1926.14 237.16 1944.92 240.52 1957.65 252.35 C 1973.60 266.92 1976.61 292.34 1967.31 311.33 C 1960.36 325.58 1945.58 335.05 1930.03 336.97 C 1913.33 339.32 1895.05 334.27 1883.63 321.47 C 1870.32 306.71 1868.35 283.94 1876.18 266.11 C 1882.10 252.68 1895.24 243.35 1909.47 240.59 M 1916.38 262.56 C 1906.91 264.76 1900.02 273.59 1898.87 283.05 C 1897.02 294.55 1902.61 307.71 1913.75 312.33 C 1921.49 315.67 1930.96 313.70 1937.00 307.90 C 1947.14 298.43 1948.47 281.04 1939.66 270.27 C 1934.23 263.49 1924.77 260.37 1916.38 262.56 Z" />
<path fill="#183647" opacity="1.00" d=" M 1983.80 251.86 C 1990.09 244.69 1999.61 241.23 2008.90 240.25 C 2023.83 238.89 2039.05 242.76 2051.96 250.25 C 2048.98 256.70 2045.91 263.10 2042.95 269.55 C 2034.88 264.27 2025.76 259.96 2015.99 259.49 C 2012.05 259.34 2007.62 259.81 2004.69 262.72 C 2002.76 264.56 2002.61 267.72 2004.21 269.82 C 2006.91 273.67 2011.72 275.01 2016.08 275.98 C 2026.01 278.24 2036.38 280.95 2044.25 287.76 C 2056.91 298.37 2055.59 321.65 2041.04 329.99 C 2032.01 335.30 2021.23 336.08 2011.00 336.38 C 1997.33 336.85 1984.36 330.83 1973.46 323.07 C 1976.69 317.24 1979.96 311.44 1983.22 305.63 C 1991.73 310.61 2000.98 314.87 2010.91 315.89 C 2015.07 316.11 2019.50 316.21 2023.44 314.54 C 2027.51 312.79 2027.34 306.38 2024.02 303.96 C 2019.23 300.28 2013.16 298.90 2007.43 297.44 C 1999.37 295.61 1991.19 292.64 1985.21 286.73 C 1975.98 277.78 1975.18 261.48 1983.80 251.86 Z" />
<path fill="#183647" opacity="1.00" d=" M 2066.13 253.09 C 2072.24 245.21 2082.19 241.37 2091.86 240.30 C 2106.91 238.79 2122.24 242.73 2135.29 250.24 C 2132.32 256.69 2129.27 263.11 2126.24 269.54 C 2118.11 264.17 2108.85 259.87 2098.98 259.48 C 2094.88 259.37 2090.12 259.97 2087.46 263.43 C 2085.48 265.85 2086.60 269.36 2088.74 271.27 C 2092.55 274.93 2098.03 275.57 2102.95 276.80 C 2111.84 278.97 2121.01 281.84 2127.93 288.10 C 2140.32 298.89 2138.73 322.06 2124.09 330.16 C 2115.30 335.20 2104.89 336.04 2094.97 336.36 C 2081.09 337.03 2067.86 330.96 2056.79 323.07 C 2060.01 317.24 2063.28 311.45 2066.54 305.64 C 2074.74 310.44 2083.61 314.52 2093.12 315.79 C 2097.80 316.14 2102.87 316.38 2107.23 314.30 C 2110.09 312.89 2110.06 309.16 2109.34 306.51 C 2108.22 304.04 2105.69 302.66 2103.40 301.51 C 2095.74 297.78 2087.00 297.36 2079.29 293.79 C 2072.91 291.03 2066.94 286.60 2063.83 280.24 C 2059.67 271.69 2060.15 260.68 2066.13 253.09 Z" />
<path fill="#183647" opacity="1.00" d=" M 769.13 241.25 C 779.54 241.24 789.95 241.25 800.37 241.25 C 800.39 272.79 800.38 304.33 800.37 335.87 C 789.96 335.88 779.54 335.88 769.12 335.87 C 769.12 304.33 769.11 272.79 769.13 241.25 Z" />
</g>
<g id="#4478d3ff">
<path fill="#4478d3" opacity="1.00" d=" M 196.24 159.27 C 199.21 151.16 207.44 145.39 216.09 145.38 C 238.41 145.36 260.73 145.31 283.05 145.41 C 293.95 145.51 303.52 155.08 303.83 165.94 C 304.00 189.58 303.85 213.24 303.89 236.89 C 299.51 236.92 295.12 236.92 290.74 236.89 C 290.73 213.63 290.77 190.36 290.73 167.10 C 290.86 162.50 286.70 158.31 282.05 158.64 C 260.37 158.62 238.69 158.66 217.01 158.63 C 212.95 158.28 208.90 161.20 208.13 165.22 C 207.72 167.87 207.91 170.57 207.90 173.24 C 203.56 173.24 199.22 173.25 194.89 173.24 C 194.92 168.57 194.38 163.69 196.24 159.27 Z" />
<path fill="#4478d3" opacity="1.00" d=" M 194.88 186.38 C 199.22 186.36 203.56 186.36 207.90 186.38 C 207.89 215.71 207.89 245.04 207.89 274.37 C 203.55 274.38 199.21 274.38 194.88 274.38 C 194.87 245.04 194.87 215.71 194.88 186.38 Z" />
<path fill="#4478d3" opacity="1.00" d=" M 1373.33 188.65 C 1378.96 186.78 1385.42 187.36 1390.53 190.45 C 1396.66 194.00 1400.77 200.87 1400.77 207.99 C 1401.01 214.93 1397.40 221.82 1391.63 225.66 C 1385.01 230.19 1375.73 230.37 1368.97 226.05 C 1362.55 222.11 1358.60 214.50 1359.24 206.97 C 1359.64 198.74 1365.51 191.18 1373.33 188.65 Z" />
<path fill="#4478d3" opacity="1.00" d=" M 1436.21 188.21 C 1441.88 186.78 1448.12 187.85 1452.98 191.13 C 1468.38 201.53 1489.21 201.49 1505.77 193.86 C 1509.83 192.01 1513.37 188.92 1517.88 188.09 C 1526.16 186.12 1535.43 189.83 1539.95 197.08 C 1544.82 204.41 1544.26 214.83 1538.55 221.56 C 1533.71 227.58 1525.41 230.49 1517.88 228.71 C 1512.70 227.75 1508.86 223.84 1504.10 221.91 C 1490.34 216.18 1474.36 216.07 1460.51 221.56 C 1454.84 223.68 1450.32 228.54 1444.05 229.02 C 1433.34 230.74 1422.42 222.61 1420.83 211.94 C 1418.75 201.59 1425.94 190.56 1436.21 188.21 Z" />
<path fill="#4478d3" opacity="1.00" d=" M 290.75 250.00 C 295.13 249.99 299.51 250.00 303.90 250.00 C 303.85 266.00 303.96 282.00 303.84 298.00 C 303.79 309.01 294.12 319.00 283.04 318.99 C 266.82 319.03 250.60 318.98 234.38 319.00 C 234.35 314.62 234.35 310.25 234.38 305.88 C 250.28 305.85 266.18 305.91 282.07 305.86 C 286.81 306.08 291.03 301.78 290.74 297.05 C 290.76 281.37 290.73 265.68 290.75 250.00 Z" />
<path fill="#4478d3" opacity="1.00" d=" M 194.88 287.62 C 199.22 287.62 203.56 287.62 207.90 287.62 C 208.36 292.86 206.30 299.30 210.50 303.46 C 213.26 306.42 217.59 305.86 221.25 305.90 C 221.26 310.26 221.26 314.63 221.25 319.00 C 212.65 320.03 203.24 317.08 198.47 309.47 C 193.81 303.13 194.97 294.99 194.88 287.62 Z" />
</g>
<g id="#d56217ff">
<path fill="#d56217" opacity="1.00" d=" M 133.14 194.91 C 132.93 184.00 142.06 173.89 153.01 173.32 C 166.97 173.12 180.93 173.29 194.89 173.24 C 199.22 173.25 203.56 173.24 207.90 173.24 C 219.94 173.23 231.98 173.25 244.03 173.22 C 256.04 172.31 267.19 182.92 266.77 194.97 C 266.77 208.94 266.76 222.91 266.76 236.88 C 262.42 236.90 258.08 236.90 253.74 236.88 C 253.71 222.94 253.80 208.99 253.71 195.05 C 253.85 190.37 249.69 186.24 245.01 186.43 C 232.64 186.31 220.27 186.43 207.90 186.38 C 203.56 186.36 199.22 186.36 194.88 186.38 C 181.58 186.43 168.28 186.31 154.98 186.42 C 150.33 186.22 146.11 190.32 146.27 194.99 C 146.25 218.66 146.23 242.33 146.28 265.99 C 146.19 270.59 150.37 274.72 155.01 274.37 C 168.29 274.39 181.59 274.36 194.88 274.38 C 199.21 274.38 203.55 274.38 207.89 274.37 C 212.34 274.37 216.79 274.38 221.25 274.37 C 221.26 278.79 221.26 283.21 221.25 287.63 C 216.80 287.62 212.35 287.63 207.90 287.62 C 203.56 287.62 199.22 287.62 194.88 287.62 C 180.95 287.56 167.01 287.75 153.09 287.53 C 142.14 287.00 132.98 276.93 133.15 266.04 C 133.09 242.33 133.10 218.62 133.14 194.91 Z" />
<path fill="#d56217" opacity="1.00" d=" M 253.75 250.01 C 258.08 249.99 262.42 249.99 266.76 250.00 C 266.65 256.22 266.99 262.46 266.60 268.67 C 265.62 277.90 257.98 285.94 248.78 287.31 C 244.01 287.91 239.18 287.53 234.38 287.62 C 234.35 283.20 234.36 278.79 234.39 274.37 C 238.26 274.32 242.14 274.51 246.02 274.31 C 250.25 274.13 253.70 270.17 253.70 266.00 C 253.86 260.67 253.68 255.34 253.75 250.01 Z" />
<path fill="#d56217" opacity="1.00" d=" M 1373.37 294.52 C 1379.01 292.65 1385.49 293.25 1390.59 296.36 C 1396.73 299.93 1400.80 306.84 1400.77 313.97 C 1400.95 320.43 1397.84 326.86 1392.69 330.76 C 1386.24 335.84 1376.70 336.48 1369.63 332.32 C 1362.89 328.51 1358.62 320.75 1359.23 313.00 C 1359.56 304.70 1365.48 297.05 1373.37 294.52 Z" />
<path fill="#d56217" opacity="1.00" d=" M 1434.38 294.63 C 1440.51 292.45 1447.63 293.36 1453.02 297.02 C 1467.82 307.03 1487.67 307.31 1503.86 300.59 C 1508.76 298.76 1512.76 294.93 1518.00 293.93 C 1525.81 292.15 1534.50 295.33 1539.19 301.86 C 1544.07 308.29 1544.62 317.63 1540.52 324.58 C 1536.34 332.06 1527.28 336.41 1518.84 334.77 C 1512.99 334.04 1508.77 329.51 1503.43 327.51 C 1486.91 320.98 1466.91 321.99 1452.02 332.10 C 1444.67 336.70 1434.42 335.89 1427.91 330.16 C 1422.41 325.60 1419.58 318.09 1420.77 311.04 C 1421.83 303.62 1427.29 297.07 1434.38 294.63 Z" />
</g>
<g id="#5ea727ff">
<path fill="#5ea727" opacity="1.00" d=" M 221.31 257.01 C 221.74 247.07 229.97 238.09 239.91 237.03 C 244.51 236.66 249.13 236.95 253.74 236.88 C 258.08 236.90 262.42 236.90 266.76 236.88 C 274.76 236.87 282.75 236.86 290.74 236.89 C 295.12 236.92 299.51 236.92 303.89 236.89 C 314.27 236.89 324.65 236.82 335.02 236.91 C 345.76 237.40 354.83 247.24 354.86 257.92 C 354.95 282.94 354.86 307.96 354.89 332.98 C 354.88 337.29 355.17 341.75 353.63 345.87 C 350.86 354.10 342.67 360.23 333.94 360.25 C 303.29 360.25 272.64 360.26 241.99 360.24 C 231.16 360.21 221.65 350.67 221.29 339.92 C 221.17 332.94 221.28 325.97 221.25 319.00 C 221.26 314.63 221.26 310.26 221.25 305.90 C 221.24 299.81 221.24 293.72 221.25 287.63 C 221.26 283.21 221.26 278.79 221.25 274.37 C 221.30 268.58 221.11 262.79 221.31 257.01 M 234.41 257.96 C 234.32 263.43 234.41 268.90 234.39 274.37 C 234.36 278.79 234.35 283.20 234.38 287.62 C 234.38 293.71 234.39 299.79 234.38 305.88 C 234.35 310.25 234.35 314.62 234.38 319.00 C 234.41 325.68 234.34 332.36 234.40 339.04 C 234.41 343.48 238.54 347.31 242.96 347.11 C 272.97 347.12 302.98 347.12 332.99 347.11 C 337.44 347.38 341.67 343.54 341.72 339.07 C 341.78 312.36 341.72 285.65 341.75 258.94 C 342.12 254.21 337.89 249.75 333.11 250.01 C 323.37 249.98 313.63 250.01 303.90 250.00 C 299.51 250.00 295.13 249.99 290.75 250.00 C 282.75 250.00 274.75 250.00 266.76 250.00 C 262.42 249.99 258.08 249.99 253.75 250.01 C 249.83 250.05 245.91 249.88 242.00 250.07 C 237.99 250.32 234.47 253.93 234.41 257.96 Z" />
<path fill="#5ea727" opacity="1.00" d=" M 1403.41 241.59 C 1409.02 239.68 1415.48 240.29 1420.58 243.37 C 1435.31 253.46 1455.09 254.58 1471.57 248.33 C 1477.01 246.46 1481.20 241.90 1487.00 240.93 C 1495.26 239.10 1504.37 242.99 1508.78 250.21 C 1513.24 257.07 1513.03 266.58 1508.26 273.24 C 1503.87 279.69 1495.64 283.20 1487.95 281.88 C 1481.30 281.04 1476.52 275.79 1470.31 273.74 C 1454.01 267.79 1434.95 270.01 1420.37 279.39 C 1413.87 283.20 1405.30 283.01 1398.97 278.95 C 1392.28 274.83 1388.37 266.70 1389.39 258.90 C 1390.20 251.06 1395.95 244.08 1403.41 241.59 Z" />
<path fill="#5ea727" opacity="1.00" d=" M 1547.21 241.19 C 1553.55 239.46 1560.65 241.02 1565.72 245.22 C 1571.20 249.64 1574.15 256.99 1573.17 263.97 C 1572.43 270.23 1568.63 276.02 1563.20 279.21 C 1556.77 283.10 1548.20 283.12 1541.81 279.15 C 1535.26 275.30 1531.19 267.65 1531.76 260.05 C 1532.13 251.30 1538.71 243.29 1547.21 241.19 Z" />
</g>
</svg>
